<svg xmlns="http://www.w3.org/2000/svg" viewBox="0 0 1024 496">
  <g transform="translate(140, 125)">
    <path d="M42 201.40L42 201.40Q39.20 201.40 35.10 200.10Q31 198.80 27.90 195.40Q24.80 192 24.80 185.40L24.80 185.40Q24.80 179.60 27.30 170.20Q29.80 160.80 33.60 149.10Q37.40 137.40 41.20 124.50Q45 111.60 47.50 98.60Q50 85.60 50 73.60L50 73.60Q50 66.20 49.50 59.80Q49 53.40 46.50 49.50Q44 45.60 38 45.60L38 45.60Q32.40 45.60 28.50 48.90Q24.60 52.20 22.10 57.40Q19.60 62.60 18.50 68.40Q17.40 74.20 17.40 79.20L17.40 79.20Q17.40 82.40 17.90 85.10Q18.40 87.80 19.20 90L19.20 90Q11.40 90 8.20 85.70Q5 81.40 5 75.60L5 75.60Q5 69.40 7.90 63.20Q10.80 57 15.90 51.70Q21 46.40 27.60 43.20Q34.20 40 41.60 40L41.60 40Q54 40 60.10 49.70Q66.20 59.40 66.20 75.60L66.20 75.60Q66.20 87.20 63.60 99.90Q61 112.60 57.20 125.20Q53.40 137.80 49.50 149.40Q45.60 161 43 170.80Q40.40 180.60 40.40 187.40L40.40 187.40Q40.40 190.80 41.50 193Q42.60 195.20 46 195.20L46 195.20Q51.60 195.20 59 189.50Q66.40 183.80 74.30 173.90Q82.20 164 89.70 151.60Q97.20 139.20 103.20 125.70Q109.20 112.20 112.80 99.20Q116.40 86.20 116.40 75.20L116.40 75.20Q116.40 65.20 113.40 60.50Q110.40 55.80 105.40 54.40L105.40 54.40Q108.20 49.60 111.30 47.40Q114.40 45.20 117 45.20L117 45.20Q121.20 45.20 125.20 50.60Q129.20 56 129.20 67.40L129.20 67.40Q129.20 78.40 125.10 92.40Q121 106.40 114 121.50Q107 136.60 98 150.80Q89 165 79.20 176.40Q69.40 187.80 59.80 194.60Q50.20 201.40 42 201.40Z"/>
    <path d="M135.80 189.20L135.80 189.20Q128 189.20 124.20 184.30Q120.40 179.40 120.40 172.40L120.40 172.40Q120.40 167.80 122.10 160.80Q123.80 153.80 126.60 146.10Q129.40 138.40 133.10 131.60Q136.80 124.80 141 120.50Q145.20 116.20 149.20 116.20L149.20 116.20Q151 116.20 152.30 117.30Q153.60 118.40 153.60 120.60L153.60 120.60Q153.60 123 150.50 128.40Q147.40 133.80 143.20 140.80Q139 147.80 135.90 155.50Q132.80 163.20 132.80 170.20L132.80 170.20Q132.80 177.40 135.20 179.80Q137.60 182.20 142.60 182.20L142.60 182.20Q149.40 182.20 157.10 175.40Q164.80 168.60 173.40 151.60L173.40 151.60L175.20 153.60Q169.40 170.80 158.50 180Q147.60 189.20 135.80 189.20Z"/>
    <path d="M159.80 97.60L159.80 97.60Q156.60 97.60 154.10 96Q151.60 94.40 151.60 91L151.60 91Q151.60 86.80 156.50 83.70Q161.40 80.60 166.20 80.60L166.20 80.60Q169.20 80.60 171 82Q172.80 83.40 172.80 86.80L172.80 86.80Q172.80 90.60 168.70 94.10Q164.60 97.60 159.80 97.60Z"/>
    <path d="M191.00 195.20L191.00 195.20Q181.40 195.20 175.00 188.80Q168.60 182.40 168.60 169.60L168.60 169.60Q168.60 159.60 172.50 150.10Q176.40 140.60 182.80 133Q189.20 125.40 197.00 120.90Q204.80 116.40 212.40 116.40L212.40 116.40Q220.60 116.40 223.60 121.20Q226.60 126 226.60 131.20L226.60 131.20Q226.60 137 223.90 141.40Q221.20 145.80 216.60 145.80L216.60 145.80Q213.20 145.80 210.80 142.80L210.80 142.80Q213.80 141.20 216.00 136.30Q218.20 131.40 218.20 127L218.20 127Q218.20 124.60 217.30 123.30Q216.40 122 213.80 122L213.80 122Q208.40 122 202.70 126.80Q197.00 131.60 192.10 139.20Q187.20 146.80 184.10 155.20Q181.00 163.60 181.00 171L181.00 171Q181.00 177.20 184.00 182.40Q187.00 187.60 195.60 187.60L195.60 187.60Q203.60 187.60 211.70 183.20Q219.80 178.80 226.80 170.60Q233.80 162.40 238.00 151.40L238.00 151.40L240.60 153.40Q236.00 165.40 228.00 174.90Q220.00 184.40 210.40 189.80Q200.80 195.20 191.00 195.20Z"/>
    <path d="M251.20 193.20L251.20 193.20Q242.60 193.20 238.00 188.20Q233.40 183.20 233.40 173.40L233.40 173.40Q233.40 164.60 236.70 151.70Q240.00 138.80 245.00 125.20L245.00 125.20Q243.00 124.80 241.20 124.50Q239.40 124.20 237.80 123.60L237.80 123.60L237.80 120Q239.40 120.20 241.60 120.40Q243.80 120.60 246.60 120.80L246.60 120.80Q250.80 110 255.60 99.90Q260.40 89.80 265.10 81.90Q269.80 74 274.10 69.30Q278.40 64.60 281.40 64.60L281.40 64.60Q283.00 64.60 284.30 65.70Q285.60 66.80 285.60 69L285.60 69Q285.60 72.40 281.40 80.10Q277.20 87.80 271.00 98.40Q264.80 109 259.00 121.40L259.00 121.40Q260.80 121.40 262.70 121.40Q264.60 121.40 266.40 121.40L266.40 121.40Q273.00 121.40 280.30 121.20Q287.60 121 295.00 120.20L295.00 120.20L295.00 123.80Q284.00 125 275.30 125.60Q266.60 126.20 259.80 126.20L259.80 126.20Q259.00 126.20 258.30 126.20Q257.60 126.20 256.80 126.20L256.80 126.20Q252.20 136.80 249.00 148Q245.80 159.20 245.80 169.80L245.80 169.80Q245.80 178.40 248.40 182.10Q251.00 185.80 257.00 185.80L257.00 185.80Q267.40 185.80 277.40 176.60Q287.40 167.40 295.00 151.60L295.00 151.60L297.60 153.60Q292.80 164.80 285.50 173.80Q278.20 182.80 269.40 188Q260.60 193.20 251.20 193.20Z"/>
    <path d="M305.00 190.40L305.00 190.40Q296.40 190.40 292.80 185.10Q289.20 179.80 289.20 172.20L289.20 172.20Q289.20 166 291.20 159.40Q293.20 152.80 296.50 147Q299.80 141.20 303.90 137.60Q308.00 134 312.20 134L312.20 134Q313.20 134 314.30 134.30Q315.40 134.60 316.40 135L316.40 135Q314.60 136.60 312.10 140.90Q309.60 145.20 307.40 150.70Q305.20 156.20 303.70 161.60Q302.20 167 302.20 170.80L302.20 170.80Q302.20 176.80 304.20 179.50Q306.20 182.20 309.40 182.20L309.40 182.20Q313.60 182.20 319.40 177.70Q325.20 173.20 330.80 166.20L330.80 166.20Q325.20 161.60 322.10 154.10Q319.00 146.60 319.00 138.80L319.00 138.80Q319.00 132.20 321.30 126.40Q323.60 120.60 328.00 117.10Q332.40 113.60 338.60 113.60L338.60 113.60Q346.80 113.60 349.60 118Q352.40 122.40 352.40 129L352.40 129Q352.40 136.80 348.60 146.30Q344.80 155.80 339.00 164.60L339.00 164.60Q342.60 166.60 346.60 166.60L346.60 166.60Q349.80 166.60 353.80 165.30Q357.80 164 361.70 160.80Q365.60 157.60 368.00 152.20L368.00 152.20L370.40 154.20Q366.40 163.60 359.10 167.50Q351.80 171.40 345.20 171.40L345.20 171.40Q342.60 171.40 340.20 170.90Q337.80 170.40 335.60 169.40L335.60 169.40Q328.80 178.40 320.70 184.40Q312.60 190.40 305.00 190.40Z"/>
    <path d="M334.40 161L334.40 161Q339.40 153.60 342.70 145.50Q346.00 137.40 346.00 130.20L346.00 130.20Q346.00 124.40 344.30 121.70Q342.60 119 340.00 119L340.00 119Q336.00 119 331.80 124.80Q327.60 130.60 327.60 139.40L327.60 139.40Q327.60 145.20 329.30 151.10Q331.00 157 334.40 161Z"/>
    <path d="M398.80 189.20L398.80 189.20Q392.00 189.20 388.10 185.60Q384.20 182 384.20 176.20L384.20 176.20Q384.20 170.20 387.00 163.60Q389.80 157 392.50 150.50Q395.20 144 395.20 138.80L395.20 138.80Q395.20 132.40 391.50 129.30Q387.80 126.20 384.00 123.60L384.00 123.60Q379.40 135.40 374.40 146Q369.40 156.60 366.20 162L366.20 162L364.40 158.60Q367.20 153.40 371.70 143.40Q376.20 133.40 380.60 120.60L380.60 120.60Q378.60 118.60 378.60 115.80L378.60 115.80Q378.60 109.80 382.00 106Q385.40 102.20 387.00 102.20L387.00 102.20Q389.20 102.20 389.50 104.10Q389.80 106 389.80 107L389.80 107Q389.80 108 388.70 110.90Q387.60 113.80 387.60 114.40L387.60 114.40Q387.60 117.20 390.70 119.50Q393.80 121.80 397.80 124.70Q401.80 127.60 404.90 131.70Q408.00 135.80 408.00 142.20L408.00 142.20Q408.00 148.20 405.50 154.40Q403.00 160.60 400.50 166.20Q398.00 171.80 398.00 176L398.00 176Q398.00 179.60 399.80 180.80Q401.60 182 404.00 182L404.00 182Q408.80 182 413.90 179Q419.00 176 423.80 171.40Q428.60 166.80 432.40 161.70Q436.20 156.60 438.00 152.20L438.00 152.20L440.60 154.20Q436.80 162.60 430.20 170.70Q423.60 178.80 415.50 184Q407.40 189.20 398.80 189.20Z"/>
    <path d="M497.60 190L497.60 190Q494.20 190 490.70 188.30Q487.20 186.60 484.90 182.80Q482.60 179 482.60 173.20L482.60 173.20Q482.60 166.60 485.80 158.40Q489.00 150.20 494.40 142.10Q499.80 134 506.80 127.10Q513.80 120.20 521.40 116.10Q529.00 112 536.40 112L536.40 112Q540.60 112 542.90 113.50Q545.20 115 545.20 118.20L545.20 118.20Q545.20 119 545.10 119.60Q545.00 120.20 544.80 121L544.80 121Q543.80 119.40 541.90 118.70Q540.00 118 537.20 118L537.20 118Q530.80 118 524.70 121.90Q518.60 125.80 513.50 132.10Q508.40 138.40 504.60 145.60Q500.80 152.80 498.70 159.50Q496.60 166.20 496.60 170.80L496.60 170.80Q496.60 175.20 498.60 177.80Q500.60 180.40 503.80 180.40L503.80 180.40Q509.20 180.40 516.90 173.60Q524.60 166.80 532.60 154.40Q540.60 142 547.00 125.40L547.00 125.40Q551.40 113.80 556.10 101.80Q560.80 89.80 565.60 78.70Q570.40 67.60 574.90 58.90Q579.40 50.20 583.50 45.10Q587.60 40 590.80 40L590.80 40Q592.40 40 593.60 41.30Q594.80 42.60 594.80 44.60L594.80 44.60Q594.80 47.80 591.50 55.50Q588.20 63.20 582.90 73.90Q577.60 84.60 571.80 97.20Q566.00 109.80 560.70 122.80Q555.40 135.80 552.10 147.90Q548.80 160 548.80 170L548.80 170Q548.80 175.60 549.40 178.40Q550.00 181.20 553.40 181.20L553.40 181.20Q557.60 181.20 563.20 177.60Q568.80 174 574.40 167.40Q580.00 160.80 584.20 151.60L584.20 151.60L586.60 153.40Q582.80 163.60 576.20 171.70Q569.60 179.80 562.10 184.50Q554.60 189.20 547.80 189.20L547.80 189.20Q540.40 189.20 537.50 184.30Q534.60 179.40 534.60 174.20L534.60 174.20Q534.60 170.80 535.60 165.20Q536.60 159.60 538.40 152.80L538.40 152.80Q532.00 163.40 524.80 171.90Q517.60 180.40 510.70 185.20Q503.80 190 497.60 190Z"/>
    <path d="M602.00 192.80L602.00 192.80Q589.80 192.80 583.70 186.10Q577.60 179.40 577.60 169.60L577.60 169.60Q577.60 160.60 582.10 150.60Q586.60 140.60 594.10 131.80Q601.60 123 610.60 117.50Q619.60 112 628.40 112L628.40 112Q633.00 112 636.90 114.40Q640.80 116.80 640.80 124.20L640.80 124.20Q640.80 131.80 636.30 138.50Q631.80 145.20 624.50 150.40Q617.20 155.60 608.50 158.90Q599.80 162.20 591.20 163L591.20 163Q590.80 165 590.60 166.80Q590.40 168.60 590.40 170.20L590.40 170.20Q590.40 173.20 591.10 176.20Q591.80 179.20 593.60 181.70Q595.40 184.20 598.50 185.60Q601.60 187 606.20 187L606.20 187Q614.80 187 623.20 182.10Q631.60 177.20 638.80 169.20Q646.00 161.20 651.00 151.60L651.00 151.60L653.40 153.40Q648.00 165.40 639.70 174.20Q631.40 183 621.70 187.90Q612.00 192.80 602.00 192.80Z"/>
    <path d="M592.20 159.20L592.20 159.20Q597.60 157.40 604.40 153.90Q611.20 150.40 617.50 145.60Q623.80 140.80 627.90 135Q632.00 129.20 632.00 122.80L632.00 122.80Q632.00 120.60 631.20 119.40Q630.40 118.20 627.80 118.20L627.80 118.20Q623.00 118.20 617.60 121.90Q612.20 125.60 607.20 131.60Q602.20 137.60 598.20 144.80Q594.20 152 592.20 159.20Z"/>
    <path d="M660.00 191.80L660.00 191.80Q653.80 191.80 651.40 185.70Q649.00 179.60 649.00 169.80L649.00 169.80Q649.00 169.40 649.20 163.50Q649.40 157.60 650.20 143.60L650.20 143.60Q650.60 138.20 651.40 136.20Q652.20 134.20 656.60 134.20L656.60 134.20Q660.00 134.20 660.90 135.50Q661.80 136.80 661.80 140.60L661.80 140.60Q661.80 147.20 660.90 156.10Q660.00 165 660.00 172.80L660.00 172.80Q660.00 178.60 661.00 181.30Q662.00 184 664.60 184L664.60 184Q668.20 184 672.60 179.90Q677.00 175.80 681.60 169.10Q686.20 162.40 690.30 154.80Q694.40 147.20 697.60 140.20L697.60 140.20Q698.00 126.60 700.50 122.10Q703.00 117.60 706.80 117.60L706.80 117.60Q710.60 117.60 712.30 120.30Q714.00 123 714.00 125.20L714.00 125.20Q714.00 127.80 712.30 130.60Q710.60 133.40 708.80 138.20Q707.00 143 707.00 152L707.00 152Q707.00 155.20 707.60 158.80Q708.20 162.40 710.20 164.80Q712.20 167.20 716.40 167.20L716.40 167.20Q720.60 167.20 724.50 163.90Q728.40 160.60 732.20 152.40L732.20 152.40L734.80 154.40Q730.40 164.40 725.10 167.80Q719.80 171.20 715.00 171.20L715.00 171.20Q708.40 171.20 704.00 166.40Q699.60 161.60 698.20 151.80L698.20 151.80Q693.40 161.60 686.90 170.70Q680.40 179.80 673.40 185.80Q666.40 191.80 660.00 191.80Z"/>
  </g>
</svg>